<svg width="15" height="30" viewBox="0 0 15 30" fill="none" xmlns="http://www.w3.org/2000/svg">
<path d="M2.12861 29.8103C1.63213 29.8113 1.15098 29.6384 0.768693 29.3216C0.553532 29.1432 0.375677 28.9242 0.245311 28.6769C0.114946 28.4297 0.0346339 28.1592 0.00897424 27.8809C-0.0166854 27.6026 0.0128121 27.322 0.0957766 27.0551C0.178741 26.7882 0.313541 26.5403 0.49246 26.3256L10.0119 14.9362L0.832441 3.52567C0.655936 3.30832 0.524127 3.05823 0.444589 2.78978C0.365052 2.52132 0.339354 2.23979 0.368973 1.96137C0.398592 1.68296 0.482942 1.41314 0.617179 1.16742C0.751415 0.921709 0.93289 0.704948 1.15117 0.529598C1.37102 0.336157 1.62848 0.190247 1.9074 0.101026C2.18632 0.0118042 2.48066 -0.0188018 2.77197 0.0111268C3.06327 0.0410554 3.34525 0.130873 3.6002 0.274943C3.85514 0.419014 4.07756 0.614226 4.25348 0.848329L14.5166 13.5976C14.8291 13.9778 15 14.4547 15 14.9469C15 15.439 14.8291 15.9159 14.5166 16.2962L3.89226 29.0454C3.67909 29.3025 3.40831 29.5058 3.10189 29.6387C2.79546 29.7716 2.46202 29.8304 2.12861 29.8103Z" fill="#C6D3E7"/>
</svg>
