<svg width="30" height="30" viewBox="0 0 30 30" fill="none" xmlns="http://www.w3.org/2000/svg">
<path d="M4.52514 0L4.31598 1.05612L3.64559 4.79085L3.35061 6.33281H22.2918L21.8722 8.68797H2.93229L2.72313 9.74279L2.05274 13.4775L1.75911 14.9792H20.6977L19.735 20.2572L12.7361 23.3827L7.24827 20.4599L7.5419 18.8763L7.83553 17.3746H1.29654L1.12894 18.4308L0.209162 23.3827L0 24.357L0.921118 24.8038L11.3966 29.7558L11.941 30L12.4854 29.7961L24.7616 24.8038L25.432 24.5596L25.5996 23.8296L29.7064 1.54196L30 0H4.52514ZM6.74548 2.59808H26.7741L23.0869 22.6929L11.9826 27.1174L3.01676 22.8956L3.56112 19.9727H4.60827L4.27307 21.8407L5.11106 22.2863L12.0241 25.9808L12.6114 26.3055L13.2402 26.021L21.4941 22.3279L22.1229 22.0421L22.2476 21.3536L23.6313 13.9231L23.9236 12.3811H4.98637L5.15531 11.2847H24.1354L24.303 10.1897L25.2241 5.23643L25.5178 3.73474H6.57788L6.74548 2.59808Z" fill="#C6D3E7"/>
</svg>
