<svg width="30" height="30" viewBox="0 0 30 30" fill="none" xmlns="http://www.w3.org/2000/svg">
<path d="M29.0756 23.1237L15.5929 30V24.6427L23.9939 20.4746L29.0756 23.1237ZM30 22.37V7.98414L25.0642 10.555V19.7992L30 22.37ZM0.92437 23.1237L14.4071 30V24.6427L6.00607 20.4746L0.92437 23.1237ZM0 22.37V7.98414L4.93581 10.555V19.7992L0 22.37ZM0.577731 7.05285L14.4071 0V5.18076L5.48319 9.60782L0.577731 7.05285ZM29.4223 7.05285L15.5929 0V5.18076L24.5168 9.60782L29.4223 7.05285ZM14.4071 23.4271L6.12161 19.314V11.1712L14.4071 15.4873V23.4271ZM15.5929 23.4271L23.8784 19.314V11.1712L15.5929 15.4873V23.4271ZM6.68067 10.2304L15.0023 6.10676L23.324 10.2304L15.0023 14.5634L6.68067 10.2304Z" fill="#C6D3E7"/>
</svg>
