<svg width="30" height="30" viewBox="0 0 30 30" fill="none" xmlns="http://www.w3.org/2000/svg">
<path d="M29.7 26.4H0.3C0.135 26.4 0 26.535 0 26.7V29.7C0 29.865 0.135 30 0.3 30H29.7C29.865 30 30 29.865 30 29.7V26.7C30 26.535 29.865 26.4 29.7 26.4ZM5.31375 23.4H8.50125C8.65875 23.4 8.80125 23.2988 8.85 23.145L10.8638 16.92H19.0838L21.0788 23.145C21.1275 23.295 21.2663 23.4 21.4275 23.4H24.7688C24.81 23.4 24.8513 23.3925 24.8888 23.3813C24.9342 23.3657 24.9761 23.3412 25.012 23.3094C25.0479 23.2775 25.0772 23.2389 25.0981 23.1956C25.119 23.1524 25.1312 23.1055 25.1339 23.0575C25.1366 23.0096 25.1297 22.9615 25.1138 22.9163L17.31 0.2475C17.2847 0.175919 17.2381 0.113816 17.1764 0.0695612C17.1147 0.0253066 17.0409 0.00102861 16.965 0H13.1288C12.9713 0 12.8325 0.0974999 12.7838 0.2475L4.96875 22.9163C4.95375 22.9538 4.95 22.995 4.95 23.0363C4.94625 23.235 5.11125 23.4 5.31375 23.4ZM14.91 4.04625H15.0638L18.2063 13.9388H11.7338L14.91 4.04625Z" fill="#C6D3E7"/>
</svg>
