<svg width="30" height="30" viewBox="0 0 30 30" fill="none" xmlns="http://www.w3.org/2000/svg">
<path d="M29.4727 16.2439L23.6719 23.8537C23.3203 24.1854 22.8955 24.3512 22.3975 24.3512C21.8994 24.3512 21.4746 24.1805 21.123 23.839C20.7715 23.4976 20.5957 23.078 20.5957 22.5805C20.5957 22.0829 20.7715 21.6585 21.123 21.3073L25.957 14.9854L21.123 8.66341C20.7715 8.31219 20.5957 7.89268 20.5957 7.40488C20.5957 6.91707 20.7715 6.49756 21.123 6.14634C21.4746 5.79512 21.8994 5.61951 22.3975 5.61951C22.8955 5.61951 23.3203 5.79512 23.6719 6.14634L29.4727 13.7268C29.8242 14.078 30 14.4976 30 14.9854C30 15.4732 29.8242 15.8927 29.4727 16.2439ZM15 28.1268C14.9805 28.1854 14.9512 28.2976 14.9121 28.4634C14.873 28.6293 14.8438 28.7415 14.8242 28.8L14.7217 29.1073L14.5752 29.4146L14.3555 29.6488L14.0479 29.8537L13.6523 29.9561L13.125 30C12.6562 30 12.207 29.7561 11.7773 29.2683C11.3477 28.7805 11.1914 28.3122 11.3086 27.8634L15 1.87317C15.332 0.62439 16.2695 0 17.8125 0C18.2422 0 18.5303 0.229268 18.6768 0.687805C18.8232 1.14634 18.8281 1.62927 18.6914 2.13659L15 28.1268ZM8.87695 23.839C8.52539 24.1805 8.10059 24.3512 7.60254 24.3512C7.10449 24.3512 6.67969 24.1854 6.32812 23.8537L0.527344 16.2439C0.175781 15.8927 0 15.4732 0 14.9854C0 14.4976 0.175781 14.078 0.527344 13.7268L6.32812 6.14634C6.67969 5.79512 7.10449 5.61951 7.60254 5.61951C8.10059 5.61951 8.52539 5.79512 8.87695 6.14634C9.22852 6.49756 9.4043 6.91707 9.4043 7.40488C9.4043 7.89268 9.22852 8.31219 8.87695 8.66341L4.04297 14.9854L8.87695 21.3073C9.22852 21.6585 9.4043 22.0829 9.4043 22.5805C9.4043 23.078 9.22852 23.4976 8.87695 23.839Z" fill="#C6D3E7"/>
</svg>
